<svg xmlns="http://www.w3.org/2000/svg" xmlns:xlink="http://www.w3.org/1999/xlink" xmlns:lucid="lucid" width="1040" height="623.56"><g transform="translate(0 -60)" lucid:page-tab-id="0_0"><path d="M180 140c0 22.1-17.9 40-40 40s-40-17.9-40-40 17.9-40 40-40 40 17.9 40 40z" stroke="#3a414a" fill="#fff"/><use xlink:href="#a" transform="matrix(1,0,0,1,105,105) translate(28.82716049382716 39.65277777777778)"/><path d="M117.75 174.35L90.5 206.93" stroke="#3a414a" fill="none"/><path d="M118.5 174.23l-.38.45-.77-.64.3-.35z" stroke="#3a414a" stroke-width=".05" fill="#3a414a"/><path d="M81.04 218.26l5.6-13.92 7.1 5.95z" stroke="#3a414a" fill="#3a414a"/><path d="M120 260c0 22.1-17.9 40-40 40s-40-17.9-40-40 17.9-40 40-40 40 17.9 40 40z" stroke="#3a414a" fill="#fff"/><use xlink:href="#b" transform="matrix(1,0,0,1,45,225) translate(22.654320987654323 39.65277777777778)"/><path d="M157.53 177.03l30.88 30.88" stroke="#3a414a" fill="none"/><path d="M157.9 176.68l-.72.7-.5-.5.76-.32.2-.1z" stroke="#3a414a" stroke-width=".05" fill="#3a414a"/><path d="M198.86 218.36l-13.37-6.8 6.55-6.57z" stroke="#3a414a" fill="#3a414a"/><path d="M240 260c0 22.1-17.9 40-40 40s-40-17.9-40-40 17.9-40 40-40 40 17.9 40 40z" stroke="#3a414a" fill="#fff"/><use xlink:href="#c" transform="matrix(1,0,0,1,165,225) translate(22.654320987654323 39.65277777777778)"/><path d="M176.14 159.33l128.74 53.85" stroke="#3a414a" fill="none"/><path d="M176.35 158.88l-.4.92-.5-.22.12-.2.32-.7z" stroke="#3a414a" stroke-width=".05" fill="#3a414a"/><path d="M318.5 218.88l-14.94-1.23 3.57-8.56z" stroke="#3a414a" fill="#3a414a"/><path d="M360 260c0 22.1-17.9 40-40 40s-40-17.9-40-40 17.9-40 40-40 40 17.9 40 40z" stroke="#3a414a" fill="#fff"/><use xlink:href="#d" transform="matrix(1,0,0,1,285,225) translate(22.654320987654323 39.65277777777778)"/><path d="M181 140.1l382.93 76.2" stroke="#3a414a" fill="none"/><path d="M181.1 139.6l-.2 1-.43-.1.03-.5-.02-.5z" stroke="#3a414a" stroke-width=".05" fill="#3a414a"/><path d="M578.4 219.18l-14.88 1.77 1.8-9.1z" stroke="#3a414a" fill="#3a414a"/><path d="M620 260c0 22.1-17.9 40-40 40s-40-17.9-40-40 17.9-40 40-40 40 17.9 40 40z" stroke="#3a414a" fill="#fff"/><use xlink:href="#e" transform="matrix(1,0,0,1,545,225) translate(22.654320987654323 39.65277777777778)"/><path d="M199.72 300.9l-30.53 45.04" stroke="#3a414a" fill="none"/><path d="M200 300.5l.62-.02-.5.73-.82-.56.12-.18z" stroke="#3a414a" stroke-width=".05" fill="#3a414a"/><path d="M160.9 358.16l4.18-14.4 7.67 5.2z" stroke="#3a414a" fill="#3a414a"/><path d="M200 400c0 22.1-17.9 40-40 40s-40-17.9-40-40 17.9-40 40-40 40 17.9 40 40z" stroke="#3a414a" fill="#fff"/><use xlink:href="#f" transform="matrix(1,0,0,1,125,365) translate(16.48148148148148 39.65277777777778)"/><path d="M319.72 300.9l-30.53 45.04" stroke="#3a414a" fill="none"/><path d="M320 300.5l.62-.02-.5.73-.82-.56.12-.18z" stroke="#3a414a" stroke-width=".05" fill="#3a414a"/><path d="M280.9 358.16l4.18-14.4 7.67 5.2z" stroke="#3a414a" fill="#3a414a"/><path d="M320 400c0 22.1-17.9 40-40 40s-40-17.9-40-40 17.9-40 40-40 40 17.9 40 40z" fill="#fff"/><path d="M314.6 419.98l-2.14 3.4-3.2 3.88-3.64 3.46-4.04 2.96-1.6.9m-9.65 4l-2.5.65-4.96.67-2.87.1-5.04-.3-4.9-.94-.4-.14m-9.64-4l-3.4-2.16-3.88-3.2-3.46-3.64-2.96-4.04-.9-1.6m-4-9.65l-.65-2.5-.67-4.96-.1-2.87.3-5.04.94-4.9.14-.4m4-9.64l2.16-3.4 3.2-3.88 3.64-3.46 4.04-2.96 1.6-.9m9.65-4l2.5-.65 4.96-.67 2.87-.1 5.04.3 4.9.94.4.14m9.64 4l3.4 2.16 3.88 3.2 3.46 3.64 2.96 4.04.9 1.6m4 9.65l.65 2.5.67 4.96.1 2.87-.3 5.04-.94 4.9-.14.4" stroke="#ced4db" fill="none"/><use xlink:href="#g" transform="matrix(1,0,0,1,245,365) translate(16.48148148148148 39.65277777777778)"/><path d="M320.36 300.85L368.32 348" stroke="#3a414a" fill="none"/><path d="M320 300.5l.7-.02.02.02-.7.72-.78-.77z" stroke="#3a414a" stroke-width=".05" fill="#3a414a"/><path d="M378.85 358.37l-13.43-6.7 6.5-6.6z" stroke="#3a414a" fill="#3a414a"/><path d="M420 400c0 22.1-17.9 40-40 40s-40-17.9-40-40 17.9-40 40-40 40 17.9 40 40z" fill="#fff"/><path d="M414.6 419.98l-2.14 3.4-3.2 3.88-3.64 3.46-4.04 2.96-1.6.9m-9.65 4l-2.5.65-4.96.67-2.87.1-5.04-.3-4.9-.94-.4-.14m-9.64-4l-3.4-2.16-3.88-3.2-3.46-3.64-2.96-4.04-.9-1.6m-4-9.65l-.65-2.5-.67-4.96-.1-2.87.3-5.04.94-4.9.14-.4m4-9.64l2.16-3.4 3.2-3.88 3.64-3.46 4.04-2.96 1.6-.9m9.65-4l2.5-.65 4.96-.67 2.87-.1 5.04.3 4.9.94.4.14m9.64 4l3.4 2.16 3.88 3.2 3.46 3.64 2.96 4.04.9 1.6m4 9.65l.65 2.5.67 4.96.1 2.87-.3 5.04-.94 4.9-.14.4" stroke="#ced4db" fill="none"/><use xlink:href="#h" transform="matrix(1,0,0,1,345,365) translate(16.48148148148148 39.65277777777778)"/><path d="M380 441v22.12" stroke="#3a414a" fill="none"/><path d="M380 440.5l.5-.02v.53h-1v-.53z" stroke="#3a414a" stroke-width=".05" fill="#3a414a"/><path d="M380 477.88l-4.64-14.26h9.28z" stroke="#3a414a" fill="#3a414a"/><path d="M420 520c0 22.1-17.9 40-40 40s-40-17.9-40-40 17.9-40 40-40 40 17.9 40 40z" fill="#fff"/><path d="M414.6 539.98l-2.14 3.4-3.2 3.88-3.64 3.46-4.04 2.96-1.6.9m-9.65 4l-2.5.65-4.96.67-2.87.1-5.04-.3-4.9-.94-.4-.14m-9.64-4l-3.4-2.16-3.88-3.2-3.46-3.64-2.96-4.04-.9-1.6m-4-9.65l-.65-2.5-.67-4.96-.1-2.87.3-5.04.94-4.9.14-.4m4-9.64l2.16-3.4 3.2-3.88 3.64-3.46 4.04-2.96 1.6-.9m9.65-4l2.5-.65 4.96-.67 2.87-.1 5.04.3 4.9.94.4.14m9.64 4l3.4 2.16 3.88 3.2 3.46 3.64 2.96 4.04.9 1.6m4 9.65l.65 2.5.67 4.96.1 2.87-.3 5.04-.94 4.9-.14.4" stroke="#ced4db" fill="none"/><use xlink:href="#i" transform="matrix(1,0,0,1,345,485) translate(10.308641975308642 39.65277777777778)"/><path d="M620.96 260.2l223.9 93" stroke="#3a414a" fill="none"/><path d="M621.17 259.74l-.4.92-.3-.13.03-.52-.02-.55z" stroke="#3a414a" stroke-width=".05" fill="#3a414a"/><path d="M858.5 358.88l-14.95-1.2 3.56-8.55z" stroke="#3a414a" fill="#3a414a"/><path d="M900 400c0 22.1-17.9 40-40 40s-40-17.9-40-40 17.9-40 40-40 40 17.9 40 40z" fill="#fff"/><path d="M894.6 419.98l-2.14 3.4-3.2 3.88-3.64 3.46-4.04 2.96-1.6.9m-9.65 4l-2.5.65-4.96.67-2.87.1-5.04-.3-4.9-.94-.4-.14m-9.64-4l-3.4-2.16-3.88-3.2-3.46-3.64-2.96-4.04-.9-1.6m-4-9.65l-.65-2.5-.67-4.96-.1-2.87.3-5.04.94-4.9.14-.4m4-9.64l2.16-3.4 3.2-3.88 3.64-3.46 4.04-2.96 1.6-.9m9.65-4l2.5-.65 4.96-.67 2.87-.1 5.04.3 4.9.94.4.14m9.64 4l3.4 2.16 3.88 3.2 3.46 3.64 2.96 4.04.9 1.6m4 9.65l.65 2.5.67 4.96.1 2.87-.3 5.04-.94 4.9-.14.4" stroke="#ced4db" fill="none"/><use xlink:href="#j" transform="matrix(1,0,0,1,825,365) translate(16.48148148148148 39.65277777777778)"/><path d="M612.1 285.4l75.37 63.54" stroke="#3a414a" fill="none"/><path d="M612.42 285.04l-.65.76-.38-.32.62-.78z" stroke="#3a414a" stroke-width=".05" fill="#3a414a"/><path d="M698.76 358.46l-13.9-5.65 5.98-7.08z" stroke="#3a414a" fill="#3a414a"/><path d="M740 400c0 22.1-17.9 40-40 40s-40-17.9-40-40 17.9-40 40-40 40 17.9 40 40z" stroke="#3a414a" fill="#fff"/><use xlink:href="#k" transform="matrix(1,0,0,1,665,365) translate(16.48148148148148 39.65277777777778)"/><path d="M580 301v42.12" stroke="#3a414a" fill="none"/><path d="M580 300.5l.5-.02v.53h-1v-.53z" stroke="#3a414a" stroke-width=".05" fill="#3a414a"/><path d="M580 357.88l-4.64-14.26h9.28z" stroke="#3a414a" fill="#3a414a"/><path d="M620 400c0 22.1-17.9 40-40 40s-40-17.9-40-40 17.9-40 40-40 40 17.9 40 40z" stroke="#3a414a" fill="#fff"/><use xlink:href="#l" transform="matrix(1,0,0,1,545,365) translate(16.48148148148148 39.65277777777778)"/><path d="M699.64 440.85l-27.9 27.2" stroke="#3a414a" fill="none"/><path d="M700 440.5l.74-.03-.76.75-.7-.72.05-.04z" stroke="#3a414a" stroke-width=".05" fill="#3a414a"/><path d="M661.16 478.37l6.98-13.28 6.47 6.63z" stroke="#3a414a" fill="#3a414a"/><path d="M700 520c0 22.1-17.9 40-40 40s-40-17.9-40-40 17.9-40 40-40 40 17.9 40 40z" stroke="#3a414a" fill="#fff"/><use xlink:href="#m" transform="matrix(1,0,0,1,625,485) translate(10.308641975308642 39.65277777777778)"/><path d="M837.92 434.45l-11.86 29.83" stroke="#3a414a" fill="none"/><path d="M838.54 434.26l-.16.4-.93-.38.23-.56z" stroke="#3a414a" stroke-width=".05" fill="#3a414a"/><path d="M820.6 478l.97-14.97 8.6 3.42z" stroke="#3a414a" fill="#3a414a"/><path d="M860 520c0 22.1-17.9 40-40 40s-40-17.9-40-40 17.9-40 40-40 40 17.9 40 40z" fill="#fff"/><path d="M854.6 539.98l-2.14 3.4-3.2 3.88-3.64 3.46-4.04 2.96-1.6.9m-9.65 4l-2.5.65-4.96.67-2.87.1-5.04-.3-4.9-.94-.4-.14m-9.64-4l-3.4-2.16-3.88-3.2-3.46-3.64-2.96-4.04-.9-1.6m-4-9.65l-.65-2.5-.67-4.96-.1-2.87.3-5.04.94-4.9.14-.4m4-9.64l2.16-3.4 3.2-3.88 3.64-3.46 4.04-2.96 1.6-.9m9.65-4l2.5-.65 4.96-.67 2.87-.1 5.04.3 4.9.94.4.14m9.64 4l3.4 2.16 3.88 3.2 3.46 3.64 2.96 4.04.9 1.6m4 9.65l.65 2.5.67 4.96.1 2.87-.3 5.04-.94 4.9-.14.4" stroke="#ced4db" fill="none"/><use xlink:href="#n" transform="matrix(1,0,0,1,785,485) translate(10.308641975308642 39.65277777777778)"/><path d="M897.3 416.8l34.23 34.6" stroke="#3a414a" fill="none"/><path d="M897.66 416.46l-.7.7-.24-.23.45-.97z" stroke="#3a414a" stroke-width=".05" fill="#3a414a"/><path d="M941.92 461.9l-13.33-6.88 6.58-6.52z" stroke="#3a414a" fill="#3a414a"/><path d="M983.06 503.56c0 22.1-17.9 40-40 40s-40-17.9-40-40 17.9-40 40-40 40 17.9 40 40z" fill="#fff"/><path d="M977.66 523.53l-2.14 3.4-3.2 3.9-3.64 3.44-4.04 2.97-1.62.9m-9.63 4l-2.52.65-4.95.65-2.87.1-5.04-.3-4.9-.94-.4-.12m-9.64-4.02l-3.4-2.14-3.88-3.2-3.46-3.64-2.97-4.04-.9-1.62m-4-9.63l-.65-2.52-.66-4.95-.1-2.87.3-5.04.94-4.9.13-.4m4.02-9.64l2.15-3.4 3.18-3.88 3.65-3.46 4.04-2.97 1.62-.9m9.62-4l2.5-.65 4.97-.66 2.86-.1 5.03.3 4.88.94.42.13m9.63 4.02l3.4 2.15 3.9 3.18 3.44 3.65 2.97 4.04.9 1.62m4 9.62l.65 2.5.65 4.97.1 2.86-.3 5.03-.94 4.88-.12.42" stroke="#ced4db" fill="none"/><use xlink:href="#o" transform="matrix(1,0,0,1,908.0555119084421,468.55582376828625) translate(10.308641975308642 39.65277777777778)"/><path d="M943.06 544.56v22.1" stroke="#3a414a" fill="none"/><path d="M943.05 544.06l.5-.02v.53h-1v-.54z" stroke="#3a414a" stroke-width=".05" fill="#3a414a"/><path d="M943.06 581.44l-4.64-14.27h9.27z" stroke="#3a414a" fill="#3a414a"/><path d="M983.06 623.56c0 22.1-17.9 40-40 40s-40-17.9-40-40 17.9-40 40-40 40 17.9 40 40z" fill="#fff"/><path d="M977.66 643.53l-2.14 3.4-3.2 3.9-3.64 3.44-4.04 2.97-1.62.9m-9.63 4l-2.52.65-4.95.65-2.87.1-5.04-.3-4.9-.94-.4-.12m-9.64-4.02l-3.4-2.14-3.88-3.2-3.46-3.64-2.97-4.04-.9-1.62m-4-9.63l-.65-2.52-.66-4.95-.1-2.87.3-5.04.94-4.9.13-.4m4.02-9.64l2.15-3.4 3.18-3.88 3.65-3.46 4.04-2.97 1.62-.9m9.62-4l2.5-.65 4.97-.66 2.86-.1 5.03.3 4.88.94.42.13m9.63 4.02l3.4 2.15 3.9 3.18 3.44 3.65 2.97 4.04.9 1.62m4 9.62l.65 2.5.65 4.97.1 2.86-.3 5.03-.94 4.88-.12.42" stroke="#ced4db" fill="none"/><use xlink:href="#p" transform="matrix(1,0,0,1,908.0555119084421,588.5558237682862) translate(4.135802469135804 39.65277777777778)"/><path d="M60 86a6 6 0 0 1 6-6h48a6 6 0 0 1 6 6v48a6 6 0 0 1-6 6H66a6 6 0 0 1-6-6z" stroke="#000" stroke-opacity="0" fill="#fff" fill-opacity="0"/><use xlink:href="#q" transform="matrix(1,0,0,1,65,85) translate(18.827160493827165 30.277777777777768)"/><path d="M20 186a6 6 0 0 1 6-6h48a6 6 0 0 1 6 6v48a6 6 0 0 1-6 6H26a6 6 0 0 1-6-6z" stroke="#000" stroke-opacity="0" fill="#fff" fill-opacity="0"/><use xlink:href="#r" transform="matrix(1,0,0,1,25,185) translate(18.827160493827165 30.277777777777768)"/><path d="M110 306a6 6 0 0 1 6-6h48a6 6 0 0 1 6 6v48a6 6 0 0 1-6 6h-48a6 6 0 0 1-6-6z" stroke="#000" stroke-opacity="0" fill="#fff" fill-opacity="0"/><use xlink:href="#s" transform="matrix(1,0,0,1,115,305) translate(18.827160493827165 30.277777777777768)"/><path d="M130 186a6 6 0 0 1 6-6h48a6 6 0 0 1 6 6v48a6 6 0 0 1-6 6h-48a6 6 0 0 1-6-6z" stroke="#000" stroke-opacity="0" fill="#fff" fill-opacity="0"/><use xlink:href="#t" transform="matrix(1,0,0,1,135,185) translate(18.827160493827165 30.277777777777768)"/><path d="M320 190.67a6 6 0 0 1 6-6h48a6 6 0 0 1 6 6v48a6 6 0 0 1-6 6h-48a6 6 0 0 1-6-6z" stroke="#000" stroke-opacity="0" fill="#fff" fill-opacity="0"/><use xlink:href="#u" transform="matrix(1,0,0,1,325,189.66666666666669) translate(18.827160493827165 30.277777777777768)"/><path d="M220 326a6 6 0 0 1 6-6h48a6 6 0 0 1 6 6v48a6 6 0 0 1-6 6h-48a6 6 0 0 1-6-6z" stroke="#000" stroke-opacity="0" fill="#fff" fill-opacity="0"/><use xlink:href="#v" transform="matrix(1,0,0,1,225,325) translate(18.827160493827165 30.277777777777768)"/><path d="M380 326a6 6 0 0 1 6-6h48a6 6 0 0 1 6 6v48a6 6 0 0 1-6 6h-48a6 6 0 0 1-6-6z" stroke="#000" stroke-opacity="0" fill="#fff" fill-opacity="0"/><use xlink:href="#w" transform="matrix(1,0,0,1,385,325) translate(18.827160493827165 30.277777777777768)"/><path d="M380 446a6 6 0 0 1 6-6h48a6 6 0 0 1 6 6v48a6 6 0 0 1-6 6h-48a6 6 0 0 1-6-6z" stroke="#000" stroke-opacity="0" fill="#fff" fill-opacity="0"/><use xlink:href="#x" transform="matrix(1,0,0,1,385,445) translate(18.827160493827165 30.277777777777768)"/><path d="M580 190.67a6 6 0 0 1 6-6h48a6 6 0 0 1 6 6V242a6 6 0 0 1-6 6h-48a6 6 0 0 1-6-6z" stroke="#000" stroke-opacity="0" fill="#fff" fill-opacity="0"/><use xlink:href="#y" transform="matrix(1,0,0,1,585,189.66666666666669) translate(18.827160493827165 31.277777777777768)"/><path d="M700 325.33a6 6 0 0 1 6-6h48a6 6 0 0 1 6 6v51.34a6 6 0 0 1-6 6h-48a6 6 0 0 1-6-6z" stroke="#000" stroke-opacity="0" fill="#fff" fill-opacity="0"/><use xlink:href="#z" transform="matrix(1,0,0,1,705,324.33333333333337) translate(13.487654320987662 31.277777777777768)"/><path d="M520 326a6 6 0 0 1 6-6h48a6 6 0 0 1 6 6v51.33a6 6 0 0 1-6 6h-48a6 6 0 0 1-6-6z" stroke="#000" stroke-opacity="0" fill="#fff" fill-opacity="0"/><use xlink:href="#A" transform="matrix(1,0,0,1,525,325) translate(12.65432098765433 31.277777777777768)"/><path d="M680 466a6 6 0 0 1 6-6h48a6 6 0 0 1 6 6v51.33a6 6 0 0 1-6 6h-48a6 6 0 0 1-6-6z" stroke="#000" stroke-opacity="0" fill="#fff" fill-opacity="0"/><use xlink:href="#B" transform="matrix(1,0,0,1,685,465) translate(12.65432098765433 31.277777777777768)"/><path d="M760 446a6 6 0 0 1 6-6h48a6 6 0 0 1 6 6v48a6 6 0 0 1-6 6h-48a6 6 0 0 1-6-6z" stroke="#000" stroke-opacity="0" fill="#fff" fill-opacity="0"/><use xlink:href="#C" transform="matrix(1,0,0,1,765,445) translate(12.65432098765433 30.277777777777768)"/><path d="M860 326a6 6 0 0 1 6-6h48a6 6 0 0 1 6 6v51.33a6 6 0 0 1-6 6h-48a6 6 0 0 1-6-6z" stroke="#000" stroke-opacity="0" fill="#fff" fill-opacity="0"/><use xlink:href="#D" transform="matrix(1,0,0,1,865,325) translate(12.65432098765433 31.277777777777768)"/><path d="M960 566a6 6 0 0 1 6-6h48a6 6 0 0 1 6 6v48a6 6 0 0 1-6 6h-48a6 6 0 0 1-6-6z" stroke="#000" stroke-opacity="0" fill="#fff" fill-opacity="0"/><use xlink:href="#E" transform="matrix(1,0,0,1,965,565) translate(12.65432098765433 30.277777777777768)"/><path d="M960 426a6 6 0 0 1 6-6h48a6 6 0 0 1 6 6v48a6 6 0 0 1-6 6h-48a6 6 0 0 1-6-6z" stroke="#000" stroke-opacity="0" fill="#fff" fill-opacity="0"/><use xlink:href="#F" transform="matrix(1,0,0,1,965,425) translate(12.65432098765433 30.277777777777768)"/><defs><path fill="#3a414a" d="M54-142c48-35 137-8 131 61C196 18 31 33 14-55l32-4c7 23 22 37 52 37 35-1 51-22 54-58 4-55-73-65-99-34H22l8-134h141v27H59" id="G"/><use transform="matrix(0.06172839506172839,0,0,0.06172839506172839,0,0)" xlink:href="#G" id="a"/><path fill="#3a414a" d="M27 0v-27h64v-190l-56 39v-29l58-41h29v221h61V0H27" id="H"/><g id="b"><use transform="matrix(0.06172839506172839,0,0,0.06172839506172839,0,0)" xlink:href="#G"/><use transform="matrix(0.06172839506172839,0,0,0.06172839506172839,12.345679012345679,0)" xlink:href="#H"/></g><path fill="#3a414a" d="M101-251c82-7 93 87 43 132L82-64C71-53 59-42 53-27h129V0H18c2-99 128-94 128-182 0-28-16-43-45-43s-46 15-49 41l-32-3c6-41 34-60 81-64" id="I"/><g id="c"><use transform="matrix(0.06172839506172839,0,0,0.06172839506172839,0,0)" xlink:href="#G"/><use transform="matrix(0.06172839506172839,0,0,0.06172839506172839,12.345679012345679,0)" xlink:href="#I"/></g><path fill="#3a414a" d="M126-127c33 6 58 20 58 59 0 88-139 92-164 29-3-8-5-16-6-25l32-3c6 27 21 44 54 44 32 0 52-15 52-46 0-38-36-46-79-43v-28c39 1 72-4 72-42 0-27-17-43-46-43-28 0-47 15-49 41l-32-3c6-42 35-63 81-64 48-1 79 21 79 65 0 36-21 52-52 59" id="J"/><g id="d"><use transform="matrix(0.06172839506172839,0,0,0.06172839506172839,0,0)" xlink:href="#G"/><use transform="matrix(0.06172839506172839,0,0,0.06172839506172839,12.345679012345679,0)" xlink:href="#J"/></g><path fill="#3a414a" d="M155-56V0h-30v-56H8v-25l114-167h33v167h35v25h-35zm-30-156c-27 46-58 90-88 131h88v-131" id="K"/><g id="e"><use transform="matrix(0.06172839506172839,0,0,0.06172839506172839,0,0)" xlink:href="#G"/><use transform="matrix(0.06172839506172839,0,0,0.06172839506172839,12.345679012345679,0)" xlink:href="#K"/></g><g id="f"><use transform="matrix(0.06172839506172839,0,0,0.06172839506172839,0,0)" xlink:href="#G"/><use transform="matrix(0.06172839506172839,0,0,0.06172839506172839,12.345679012345679,0)" xlink:href="#I"/><use transform="matrix(0.06172839506172839,0,0,0.06172839506172839,24.691358024691358,0)" xlink:href="#H"/></g><path fill="#ced4db" d="M54-142c48-35 137-8 131 61C196 18 31 33 14-55l32-4c7 23 22 37 52 37 35-1 51-22 54-58 4-55-73-65-99-34H22l8-134h141v27H59" id="L"/><path fill="#ced4db" d="M126-127c33 6 58 20 58 59 0 88-139 92-164 29-3-8-5-16-6-25l32-3c6 27 21 44 54 44 32 0 52-15 52-46 0-38-36-46-79-43v-28c39 1 72-4 72-42 0-27-17-43-46-43-28 0-47 15-49 41l-32-3c6-42 35-63 81-64 48-1 79 21 79 65 0 36-21 52-52 59" id="M"/><path fill="#ced4db" d="M27 0v-27h64v-190l-56 39v-29l58-41h29v221h61V0H27" id="N"/><g id="g"><use transform="matrix(0.06172839506172839,0,0,0.06172839506172839,0,0)" xlink:href="#L"/><use transform="matrix(0.06172839506172839,0,0,0.06172839506172839,12.345679012345679,0)" xlink:href="#M"/><use transform="matrix(0.06172839506172839,0,0,0.06172839506172839,24.691358024691358,0)" xlink:href="#N"/></g><path fill="#ced4db" d="M101-251c82-7 93 87 43 132L82-64C71-53 59-42 53-27h129V0H18c2-99 128-94 128-182 0-28-16-43-45-43s-46 15-49 41l-32-3c6-41 34-60 81-64" id="O"/><g id="h"><use transform="matrix(0.06172839506172839,0,0,0.06172839506172839,0,0)" xlink:href="#L"/><use transform="matrix(0.06172839506172839,0,0,0.06172839506172839,12.345679012345679,0)" xlink:href="#M"/><use transform="matrix(0.06172839506172839,0,0,0.06172839506172839,24.691358024691358,0)" xlink:href="#O"/></g><g id="i"><use transform="matrix(0.06172839506172839,0,0,0.06172839506172839,0,0)" xlink:href="#L"/><use transform="matrix(0.06172839506172839,0,0,0.06172839506172839,12.345679012345679,0)" xlink:href="#M"/><use transform="matrix(0.06172839506172839,0,0,0.06172839506172839,24.691358024691358,0)" xlink:href="#O"/><use transform="matrix(0.06172839506172839,0,0,0.06172839506172839,37.03703703703704,0)" xlink:href="#N"/></g><path fill="#ced4db" d="M155-56V0h-30v-56H8v-25l114-167h33v167h35v25h-35zm-30-156c-27 46-58 90-88 131h88v-131" id="P"/><g id="j"><use transform="matrix(0.06172839506172839,0,0,0.06172839506172839,0,0)" xlink:href="#L"/><use transform="matrix(0.06172839506172839,0,0,0.06172839506172839,12.345679012345679,0)" xlink:href="#P"/><use transform="matrix(0.06172839506172839,0,0,0.06172839506172839,24.691358024691358,0)" xlink:href="#M"/></g><g id="k"><use transform="matrix(0.06172839506172839,0,0,0.06172839506172839,0,0)" xlink:href="#G"/><use transform="matrix(0.06172839506172839,0,0,0.06172839506172839,12.345679012345679,0)" xlink:href="#K"/><use transform="matrix(0.06172839506172839,0,0,0.06172839506172839,24.691358024691358,0)" xlink:href="#I"/></g><g id="l"><use transform="matrix(0.06172839506172839,0,0,0.06172839506172839,0,0)" xlink:href="#G"/><use transform="matrix(0.06172839506172839,0,0,0.06172839506172839,12.345679012345679,0)" xlink:href="#K"/><use transform="matrix(0.06172839506172839,0,0,0.06172839506172839,24.691358024691358,0)" xlink:href="#H"/></g><g id="m"><use transform="matrix(0.06172839506172839,0,0,0.06172839506172839,0,0)" xlink:href="#G"/><use transform="matrix(0.06172839506172839,0,0,0.06172839506172839,12.345679012345679,0)" xlink:href="#K"/><use transform="matrix(0.06172839506172839,0,0,0.06172839506172839,24.691358024691358,0)" xlink:href="#I"/><use transform="matrix(0.06172839506172839,0,0,0.06172839506172839,37.03703703703704,0)" xlink:href="#H"/></g><g id="n"><use transform="matrix(0.06172839506172839,0,0,0.06172839506172839,0,0)" xlink:href="#L"/><use transform="matrix(0.06172839506172839,0,0,0.06172839506172839,12.345679012345679,0)" xlink:href="#P"/><use transform="matrix(0.06172839506172839,0,0,0.06172839506172839,24.691358024691358,0)" xlink:href="#M"/><use transform="matrix(0.06172839506172839,0,0,0.06172839506172839,37.03703703703704,0)" xlink:href="#N"/></g><g id="o"><use transform="matrix(0.06172839506172839,0,0,0.06172839506172839,0,0)" xlink:href="#L"/><use transform="matrix(0.06172839506172839,0,0,0.06172839506172839,12.345679012345679,0)" xlink:href="#P"/><use transform="matrix(0.06172839506172839,0,0,0.06172839506172839,24.691358024691358,0)" xlink:href="#M"/><use transform="matrix(0.06172839506172839,0,0,0.06172839506172839,37.03703703703704,0)" xlink:href="#O"/></g><g id="p"><use transform="matrix(0.06172839506172839,0,0,0.06172839506172839,0,0)" xlink:href="#L"/><use transform="matrix(0.06172839506172839,0,0,0.06172839506172839,12.345679012345679,0)" xlink:href="#P"/><use transform="matrix(0.06172839506172839,0,0,0.06172839506172839,24.691358024691358,0)" xlink:href="#M"/><use transform="matrix(0.06172839506172839,0,0,0.06172839506172839,37.03703703703704,0)" xlink:href="#O"/><use transform="matrix(0.06172839506172839,0,0,0.06172839506172839,49.382716049382715,0)" xlink:href="#N"/></g><use transform="matrix(0.06172839506172835,0,0,0.06172839506172835,0,0)" xlink:href="#H" id="q"/><use transform="matrix(0.06172839506172835,0,0,0.06172839506172835,0,0)" xlink:href="#I" id="r"/><use transform="matrix(0.06172839506172835,0,0,0.06172839506172835,0,0)" xlink:href="#K" id="s"/><use transform="matrix(0.06172839506172835,0,0,0.06172839506172835,0,0)" xlink:href="#J" id="t"/><use transform="matrix(0.06172839506172835,0,0,0.06172839506172835,0,0)" xlink:href="#G" id="u"/><path fill="#3a414a" d="M110-160c48 1 74 30 74 79 0 53-28 85-80 85-65 0-83-55-86-122-5-90 50-162 133-122 14 7 22 21 27 39l-31 6c-5-40-67-38-82-6-9 19-15 44-15 74 11-20 30-34 60-33zm-7 138c34 0 49-23 49-58s-16-56-50-56c-29 0-50 16-49 49 1 36 15 65 50 65" id="Q"/><use transform="matrix(0.06172839506172835,0,0,0.06172839506172835,0,0)" xlink:href="#Q" id="v"/><path fill="#3a414a" d="M64 0c3-98 48-159 88-221H18v-27h164v26C143-157 98-101 97 0H64" id="R"/><use transform="matrix(0.06172839506172835,0,0,0.06172839506172835,0,0)" xlink:href="#R" id="w"/><path fill="#3a414a" d="M134-131c28 9 52 24 51 62-1 50-34 73-85 73S17-19 16-69c0-36 21-54 49-61-75-25-45-126 34-121 46 3 78 18 79 63 0 33-17 51-44 57zm-34-11c31 1 46-15 46-44 0-28-17-43-47-42-29 0-46 13-45 42 1 28 16 44 46 44zm1 122c35 0 51-18 51-52 0-30-18-46-53-46-33 0-51 17-51 47 0 34 19 51 53 51" id="S"/><use transform="matrix(0.06172839506172835,0,0,0.06172839506172835,0,0)" xlink:href="#S" id="x"/><path fill="#3a414a" d="M99-251c64 0 84 50 84 122C183-37 130 33 47-8c-14-7-20-23-25-40l30-5c6 39 69 39 84 7 9-19 16-44 16-74-10 22-31 35-62 35-49 0-73-33-73-83 0-54 28-83 82-83zm-1 141c31-1 51-18 51-49 0-36-14-67-51-67-34 0-49 23-49 58 0 34 15 58 49 58" id="T"/><use transform="matrix(0.06172839506172835,0,0,0.06172839506172835,0,0)" xlink:href="#T" id="y"/><g id="z"><use transform="matrix(0.06172839506172835,0,0,0.06172839506172835,0,0)" xlink:href="#H"/><use transform="matrix(0.06172839506172835,0,0,0.06172839506172835,10.679012345679004,0)" xlink:href="#H"/></g><path fill="#3a414a" d="M101-251c68 0 85 55 85 127S166 4 100 4C33 4 14-52 14-124c0-73 17-127 87-127zm-1 229c47 0 54-49 54-102s-4-102-53-102c-51 0-55 48-55 102 0 53 5 102 54 102" id="U"/><g id="A"><use transform="matrix(0.06172839506172835,0,0,0.06172839506172835,0,0)" xlink:href="#H"/><use transform="matrix(0.06172839506172835,0,0,0.06172839506172835,12.34567901234567,0)" xlink:href="#U"/></g><g id="B"><use transform="matrix(0.06172839506172835,0,0,0.06172839506172835,0,0)" xlink:href="#H"/><use transform="matrix(0.06172839506172835,0,0,0.06172839506172835,12.34567901234567,0)" xlink:href="#I"/></g><g id="C"><use transform="matrix(0.06172839506172835,0,0,0.06172839506172835,0,0)" xlink:href="#H"/><use transform="matrix(0.06172839506172835,0,0,0.06172839506172835,12.34567901234567,0)" xlink:href="#K"/></g><g id="D"><use transform="matrix(0.06172839506172835,0,0,0.06172839506172835,0,0)" xlink:href="#H"/><use transform="matrix(0.06172839506172835,0,0,0.06172839506172835,12.34567901234567,0)" xlink:href="#J"/></g><g id="E"><use transform="matrix(0.06172839506172835,0,0,0.06172839506172835,0,0)" xlink:href="#H"/><use transform="matrix(0.06172839506172835,0,0,0.06172839506172835,12.34567901234567,0)" xlink:href="#Q"/></g><g id="F"><use transform="matrix(0.06172839506172835,0,0,0.06172839506172835,0,0)" xlink:href="#H"/><use transform="matrix(0.06172839506172835,0,0,0.06172839506172835,12.34567901234567,0)" xlink:href="#G"/></g></defs></g></svg>